<svg version="1.1" xmlns="http://www.w3.org/2000/svg" viewBox="0 0 314.5850695788861 110.19069857672793">
  <!-- svg-source:excalidraw -->
  
  <defs>
    <style>
      @font-face {
        font-family: "Virgil";
        src: url("https://excalidraw.com/Virgil.woff2");
      }
      @font-face {
        font-family: "Cascadia";
        src: url("https://excalidraw.com/Cascadia.woff2");
      }
    </style>
  </defs>
  <rect x="0" y="0" width="314.5850695788861" height="110.19069857672793" fill="#ffffff"></rect><g stroke-linecap="round"><g transform="translate(11.296200546622288 38.52835353390316) rotate(0 89.87200927734375 0.997222900390625)"><path d="M0.71 1.2 C30.51 1.44, 149.88 2.52, 179.63 2.65 M-0.37 0.78 C29.19 1.18, 148.86 0.45, 178.62 0.87" stroke="#000000" stroke-width="1" fill="none"></path></g></g><g stroke-linecap="round"><g transform="translate(11.237606796622288 70.50335963741878) rotate(0 76.8153076171875 0.3235321044921875)"><path d="M-0.66 -1.16 C25.21 -0.72, 128.5 1.17, 154.09 1.67 M1.19 0.84 C27.04 1.05, 127.69 0.21, 153.39 0.09" stroke="#000000" stroke-width="1" fill="none"></path></g></g><g stroke-linecap="round"><g transform="translate(159.2418792575598 61.25680812374691) rotate(0 6.3494873046875 9.557113647460938)"><path d="M0.56 0.73 C2.92 3.67, 11.74 15.63, 13.7 18.61 M-0.6 0.06 C1.72 3.09, 11.28 16.61, 13.28 19.88" stroke="#000000" stroke-width="1" fill="none"></path></g></g><g stroke-linecap="round"><g transform="translate(159.6187103122473 81.09509547726253) rotate(0 6.69384765625 -9.719223022460938)"><path d="M1 -0.5 C3.08 -3.94, 11.02 -16.56, 13.03 -19.91 M0.07 -1.81 C1.91 -5.15, 9.88 -15.6, 11.89 -18.62" stroke="#000000" stroke-width="1" fill="none"></path></g></g><g stroke-linecap="round"><g transform="translate(10.900326523184788 11.749544940153157) rotate(0 115.221923828125 0.91357421875)"><path d="M-0.9 -0.46 C37.45 -0.38, 191.41 0.15, 230.12 0.66 M0.83 -1.75 C39 -1.59, 190.62 1.19, 229 1.58" stroke="#000000" stroke-width="1" fill="none"></path></g></g><g stroke-linecap="round"><g transform="translate(185.2079437106848 31.680331072965657) rotate(0 6.3494873046875 9.557113647460938)"><path d="M-0.23 -0.89 C2.19 2.67, 11.86 17, 13.83 20.22 M-1.81 1.26 C0.61 4.6, 10.86 15.66, 13.47 18.68" stroke="#000000" stroke-width="1" fill="none"></path></g></g><g stroke-linecap="round"><g transform="translate(185.5847747653723 51.51861842648128) rotate(0 6.69384765625 -9.719223022460938)"><path d="M0.74 0.66 C3.13 -2.53, 11.69 -16.33, 13.81 -19.71 M-0.34 -0.04 C1.99 -3, 10.91 -15.26, 13.08 -18.32" stroke="#000000" stroke-width="1" fill="none"></path></g></g><g stroke-linecap="round"><g transform="translate(12.280209335684788 99.93838771359066) rotate(0 116.78790283203125 -0.1201019287109375)"><path d="M0.23 -0.23 C39.01 -0.15, 193.69 0.07, 232.55 0.25 M-1.11 -1.4 C38.04 -1.66, 195.79 -1.7, 234.72 -1.61" stroke="#000000" stroke-width="1" fill="none"></path></g></g><g stroke-linecap="round"><g transform="translate(241.1112640231848 11.764590106168782) rotate(0 30.07550048828125 0.910980224609375)"><path d="M0.79 1 C10.73 1.2, 50.28 0.62, 60.33 0.8" stroke="#000000" stroke-width="1.5" fill="none" stroke-dasharray="8 9"></path></g></g><g stroke-linecap="round"><g transform="translate(244.0581634372473 97.66592677609066) rotate(0 30.07550048828125 0.910980224609375)"><path d="M-0.35 0.65 C9.78 0.74, 50.32 0.58, 60.53 0.74" stroke="#000000" stroke-width="1.5" fill="none" stroke-dasharray="8 9"></path></g></g></svg>